# xmcd
#
# Track frame offsets: 
#        150
#        13119
#        26868
#        40220
#        52862
#        63086
#        76754
#        90375
#        116845
#        135858
#        149130
#        162520
#        176645
#        190165
#        205743
#        221231
#        235002
#        244535
#        257572
#        269113
#        284004
#        298749
#        310754
#        325045
#
# Disc length: 4521 seconds
#
# Revision: 0
# Processed by: cddbd v1.5.2PL0 Copyright (c) Steve Scherf et al.
# Submitted via: ExactAudioCopy v0.99pb4
#
DISCID=6211a718
DTITLE=Various Artist - The Definitive Charley Patton (Vol. 3): Mississippi B
DTITLE=ottom Blues
DYEAR=2009
DGENRE=Blues
TTITLE0=Bessie Smith - Mama's Got the Blues
TTITLE1=Tommy Johnson - Bye Bye Blues
TTITLE2=Son House - Clarksdale Moan
TTITLE3=Kid Bailey - Mississippi Bottom Blues
TTITLE4=Blind Pete and Partner - Banty Rooster
TTITLE5=Louise Johnson - On the Wall
TTITLE6=Casey Bill Weldon - Hitch Me to Your Buggy
TTITLE7=David Edwards - Water Coast Blues
TTITLE8=Son House - The Pony Blues
TTITLE9=Johnny Temple - Louise, Louise Blues
TTITLE10=Kid Bailey - Rowdy Blues
TTITLE11=Mattie Delaney - Down the Big Road Blues
TTITLE12=Willie Brown - Future Blues
TTITLE13=Tommy Johnson - Maggie Campbell Blues
TTITLE14=Son House - The Jinx Blues
TTITLE15=Poor Boy Lofton - Dark Road Blues
TTITLE16=Sonny Boy Nelson - Pony Blues
TTITLE17=Skip James - If You Haven't Any Hay
TTITLE18=Howlin' Wolf - Saddle My Pony
TTITLE19=Marshall Owens - Texas Blues
TTITLE20=Casey Bill Weldon - Turpentine Blues
TTITLE21=Papa Charly Jackson - Spoonful
TTITLE22=Son House - My Black Mama, Pt. 1
TTITLE23=Willie Brown - M and O Blues
EXTD=
EXTT0=
EXTT1=
EXTT2=
EXTT3=
EXTT4=
EXTT5=
EXTT6=
EXTT7=
EXTT8=
EXTT9=
EXTT10=
EXTT11=
EXTT12=
EXTT13=
EXTT14=
EXTT15=
EXTT16=
EXTT17=
EXTT18=
EXTT19=
EXTT20=
EXTT21=
EXTT22=
EXTT23=
PLAYORDER=
